<svg data-v-0dd9719b="" version="1.0" xmlns="http://www.w3.org/2000/svg" xmlns:xlink="http://www.w3.org/1999/xlink" width="100%" height="100%" viewBox="0 0 340.000000 250.000000" preserveAspectRatio="xMidYMid meet" color-interpolation-filters="sRGB" style="margin: auto;"> <rect data-v-0dd9719b="" x="0" y="0" width="100%" height="100%" fill="#fff" fill-opacity="1" class="background"></rect> <rect data-v-0dd9719b="" x="0" y="0" width="100%" height="100%" fill="url(#watermark)" fill-opacity="1" class="watermarklayer"></rect> <g data-v-0dd9719b="" fill="#333" class="icon-text-wrapper icon-svg-group iconsvg" transform="translate(48.915000915527344,88.27804565429688)"><g class="iconsvg-imagesvg" transform="translate(0,0)"><g><rect fill="#333" fill-opacity="0" stroke-width="2" x="0" y="0" width="60" height="73.44390721586389" class="image-rect"></rect> <svg x="0" y="0" width="60" height="73.44390721586389" filtersec="colorsb967176764" class="image-svg-svg primary" style="overflow: visible;"><svg xmlns="http://www.w3.org/2000/svg" viewBox="0.0007322460296563804 -0.00128936767578125 81.70841979980469 100.01615905761719"><path d="M65.68 67.05a6.52 6.52 0 1 1-6.52 6.51 6.51 6.51 0 0 1 6.52-6.51z" fill="#fc0"></path><path d="M53 .47l-.5.14a15.39 15.39 0 0 0-8 6 53.55 53.55 0 0 1 15.09 10.94C65.14 23.21 69.48 31 72.42 39a39.39 39.39 0 0 0-43.51-16.42l-.75.22a39.43 39.43 0 1 0 35.27 69.07c.52-.4-5.26-14.52-16.7-10.29-3 1.06-8.85 3.57-20.21-3C18 73.7 15.3 62.74 18.44 53.46a22.16 22.16 0 0 1 42.39 1.39A8.64 8.64 0 0 0 71.41 61c11.12-3 11.82-28.17 8.68-38.49C75.5 7.41 63.45-2.3 53 .47z" fill="#0077f0"></path><path d="M51.51 57a13.16 13.16 0 0 1-9.31 16.11 13.18 13.18 0 0 1-16.13-9.31 13.17 13.17 0 0 1 9.31-16.13A13.17 13.17 0 0 1 51.51 57z" fill="#3eae31"></path></svg></svg> <!----></g></g> <g transform="translate(67,24.136954307556152)"><g data-gra="path-name" fill-rule="" class="tp-name iconsvg-namesvg"><g transform="scale(1)"><g><path d="M4.91 0.21Q3.89 0.21 3.28-0.4 2.66-1.02 2.66-2.07L2.66-2.07 2.66-22.57Q2.66-23.59 3.24-24.15 3.82-24.71 4.84-24.71L4.84-24.71 13.46-24.71Q17.42-24.71 19.63-22.73 21.84-20.75 21.84-17.18L21.84-17.18Q21.84-13.6 19.63-11.6 17.42-9.6 13.46-9.6L13.46-9.6 7.19-9.6 7.19-2.07Q7.19-1.02 6.57-0.4 5.96 0.21 4.91 0.21L4.91 0.21ZM12.9-13.07Q17.56-13.07 17.56-17.14L17.56-17.14Q17.56-21.21 12.9-21.21L12.9-21.21 7.19-21.21 7.19-13.07 12.9-13.07ZM38.35-4.7Q38.94-4.7 39.31-4.24 39.68-3.79 39.68-3.01L39.68-3.01Q39.68-1.93 38.38-1.19L38.38-1.19Q37.19-0.53 35.68-0.12 34.18 0.28 32.81 0.28L32.81 0.28Q28.67 0.28 26.26-2.1 23.84-4.49 23.84-8.62L23.84-8.62Q23.84-11.25 24.89-13.29 25.94-15.32 27.85-16.44 29.76-17.56 32.18-17.56L32.18-17.56Q34.49-17.56 36.21-16.55 37.93-15.53 38.87-13.67 39.82-11.81 39.82-9.29L39.82-9.29Q39.82-7.78 38.49-7.78L38.49-7.78 28.15-7.78Q28.36-5.36 29.52-4.22 30.67-3.08 32.88-3.08L32.88-3.08Q34-3.08 34.86-3.37 35.72-3.65 36.81-4.14L36.81-4.14Q37.86-4.7 38.35-4.7L38.35-4.7ZM32.28-14.48Q30.5-14.48 29.43-13.36 28.36-12.23 28.15-10.13L28.15-10.13 36.07-10.13Q36-12.27 35.02-13.37 34.04-14.48 32.28-14.48L32.28-14.48ZM63.76-17.56Q66.57-17.56 68.06-15.9 69.55-14.23 69.55-10.52L69.55-10.52 69.55-1.89Q69.55-0.88 68.93-0.33 68.32 0.21 67.34 0.21L67.34 0.21Q66.39 0.21 65.78-0.33 65.16-0.88 65.16-1.89L65.16-1.89 65.16-10.52Q65.16-12.44 64.48-13.27 63.8-14.09 62.4-14.09L62.4-14.09Q60.68-14.09 59.66-12.92 58.64-11.74 58.64-9.71L58.64-9.71 58.64-1.89Q58.64-0.88 58.03-0.33 57.42 0.21 56.47 0.21L56.47 0.21Q55.52 0.21 54.89-0.33 54.26-0.88 54.26-1.89L54.26-1.89 54.26-10.52Q54.26-12.44 53.58-13.27 52.9-14.09 51.49-14.09L51.49-14.09Q49.78-14.09 48.78-12.92 47.78-11.74 47.78-9.71L47.78-9.71 47.78-1.89Q47.78-0.88 47.15-0.33 46.52 0.21 45.57 0.21L45.57 0.21Q44.62 0.21 44.01-0.33 43.4-0.88 43.4-1.89L43.4-1.89 43.4-15.46Q43.4-16.44 44.03-16.97 44.66-17.49 45.6-17.49L45.6-17.49Q46.52-17.49 47.09-16.98 47.67-16.48 47.67-15.53L47.67-15.53 47.67-14.69Q48.48-16.09 49.83-16.83 51.18-17.56 52.93-17.56L52.93-17.56Q56.79-17.56 58.08-14.34L58.08-14.34Q58.85-15.81 60.36-16.69 61.87-17.56 63.76-17.56L63.76-17.56ZM83.85-17.56Q86.09-17.56 87.81-16.48 89.53-15.39 90.49-13.39 91.45-11.39 91.45-8.73L91.45-8.73Q91.45-6.06 90.49-4.01 89.53-1.96 87.79-0.84 86.06 0.28 83.85 0.28L83.85 0.28Q81.99 0.28 80.54-0.53 79.08-1.33 78.31-2.77L78.31-2.77 78.31-1.89Q78.31-0.95 77.71-0.39 77.12 0.18 76.14 0.18L76.14 0.18Q75.15 0.18 74.58-0.39 74-0.95 74-1.89L74-1.89 74-22.85Q74-23.77 74.61-24.33 75.22-24.89 76.21-24.89L76.21-24.89Q77.19-24.89 77.78-24.36 78.38-23.84 78.38-22.93L78.38-22.93 78.38-14.65Q79.15-16.05 80.59-16.81 82.03-17.56 83.85-17.56L83.85-17.56ZM82.69-3.12Q84.76-3.12 85.92-4.59 87.07-6.06 87.07-8.73L87.07-8.73Q87.07-11.36 85.93-12.76 84.79-14.16 82.69-14.16L82.69-14.16Q80.59-14.16 79.45-12.74 78.31-11.32 78.31-8.66L78.31-8.66Q78.31-5.99 79.45-4.56 80.59-3.12 82.69-3.12L82.69-3.12ZM108.63-4.7Q109.23-4.7 109.59-4.24 109.96-3.79 109.96-3.01L109.96-3.01Q109.96-1.93 108.67-1.19L108.67-1.19Q107.47-0.53 105.97-0.12 104.46 0.28 103.09 0.28L103.09 0.28Q98.96 0.28 96.54-2.1 94.12-4.49 94.12-8.62L94.12-8.62Q94.12-11.25 95.17-13.29 96.22-15.32 98.13-16.44 100.04-17.56 102.46-17.56L102.46-17.56Q104.78-17.56 106.49-16.55 108.21-15.53 109.16-13.67 110.1-11.81 110.1-9.29L110.1-9.29Q110.1-7.78 108.77-7.78L108.77-7.78 98.43-7.78Q98.64-5.36 99.8-4.22 100.95-3.08 103.16-3.08L103.16-3.08Q104.28-3.08 105.14-3.37 106-3.65 107.09-4.14L107.09-4.14Q108.14-4.7 108.63-4.7L108.63-4.7ZM102.57-14.48Q100.78-14.48 99.71-13.36 98.64-12.23 98.43-10.13L98.43-10.13 106.35-10.13Q106.28-12.27 105.3-13.37 104.32-14.48 102.57-14.48L102.57-14.48ZM123.25-17.49Q124.16-17.56 124.69-17.11 125.21-16.65 125.21-15.74L125.21-15.74Q125.21-14.79 124.76-14.34 124.3-13.88 123.11-13.74L123.11-13.74 122.06-13.64Q119.99-13.43 119.02-12.23 118.06-11.04 118.06-9.25L118.06-9.25 118.06-1.89Q118.06-0.88 117.43-0.33 116.8 0.21 115.85 0.21L115.85 0.21Q114.91 0.21 114.29-0.33 113.68-0.88 113.68-1.89L113.68-1.89 113.68-15.46Q113.68-16.44 114.29-16.97 114.91-17.49 115.82-17.49L115.82-17.49Q116.73-17.49 117.29-16.98 117.85-16.48 117.85-15.53L117.85-15.53 117.85-14.13Q118.52-15.67 119.83-16.51 121.15-17.35 122.76-17.46L122.76-17.46 123.25-17.49ZM137.59-3.05Q139.34-2.94 139.34-1.47L139.34-1.47Q139.34-0.63 138.65-0.19 137.97 0.25 136.71 0.18L136.71 0.18 135.76 0.11Q129.87-0.32 129.87-6.2L129.87-6.2 129.87-13.85 128.12-13.85Q127.17-13.85 126.67-14.27 126.16-14.69 126.16-15.49L126.16-15.49Q126.16-16.3 126.67-16.72 127.17-17.14 128.12-17.14L128.12-17.14 129.87-17.14 129.87-20.37Q129.87-21.31 130.47-21.87 131.07-22.43 132.08-22.43L132.08-22.43Q133.06-22.43 133.66-21.87 134.26-21.31 134.26-20.37L134.26-20.37 134.26-17.14 137.23-17.14Q138.18-17.14 138.69-16.72 139.2-16.3 139.2-15.49L139.2-15.49Q139.2-14.69 138.69-14.27 138.18-13.85 137.23-13.85L137.23-13.85 134.26-13.85 134.26-5.89Q134.26-3.3 136.64-3.12L136.64-3.12 137.59-3.05ZM149.43 0.28Q146.8 0.28 144.82-0.81 142.84-1.89 141.76-3.93 140.67-5.96 140.67-8.66L140.67-8.66Q140.67-11.36 141.76-13.37 142.84-15.39 144.82-16.48 146.8-17.56 149.43-17.56L149.43-17.56Q152.06-17.56 154.04-16.48 156.02-15.39 157.09-13.37 158.16-11.36 158.16-8.66L158.16-8.66Q158.16-5.96 157.09-3.93 156.02-1.89 154.04-0.81 152.06 0.28 149.43 0.28L149.43 0.28ZM149.4-3.12Q151.54-3.12 152.66-4.52 153.78-5.92 153.78-8.66L153.78-8.66Q153.78-11.36 152.66-12.78 151.54-14.2 149.43-14.2L149.43-14.2Q147.33-14.2 146.19-12.78 145.05-11.36 145.05-8.66L145.05-8.66Q145.05-5.92 146.17-4.52 147.3-3.12 149.4-3.12L149.4-3.12ZM171.73-17.56Q174.81-17.56 176.32-15.81 177.83-14.06 177.83-10.52L177.83-10.52 177.83-1.89Q177.83-0.91 177.25-0.35 176.67 0.21 175.65 0.21L175.65 0.21Q174.64 0.21 174.04-0.35 173.44-0.91 173.44-1.89L173.44-1.89 173.44-10.27Q173.44-12.27 172.69-13.18 171.94-14.09 170.33-14.09L170.33-14.09Q168.43-14.09 167.29-12.9 166.15-11.71 166.15-9.71L166.15-9.71 166.15-1.89Q166.15-0.91 165.56-0.35 164.96 0.21 163.95 0.21L163.95 0.21Q162.93 0.21 162.35-0.35 161.77-0.91 161.77-1.89L161.77-1.89 161.77-15.46Q161.77-16.37 162.37-16.93 162.96-17.49 163.98-17.49L163.98-17.49Q164.89-17.49 165.47-16.95 166.05-16.41 166.05-15.53L166.05-15.53 166.05-14.58Q166.93-16.02 168.4-16.79 169.87-17.56 171.73-17.56L171.73-17.56Z" transform="translate(-2.6600000858306885, 24.889999389648438)"></path></g> <!----> <!----> <!----> <!----> <!----> <!----> <!----></g></g> <!----></g></g><defs v-gra="od"></defs></svg>